<mxfile host="app.diagrams.net" modified="2024-05-28T05:12:18.464Z" agent="Mozilla/5.0 (Macintosh; Intel Mac OS X 10_15_7) AppleWebKit/537.36 (KHTML, like Gecko) Chrome/124.0.0.0 Safari/537.36" version="23.1.1" etag="WWofxFVSKYFEMSdFT0uE" type="github">
  <diagram name="Page-1" id="dH1jRRf0YbZbGbIneZdg">
    <mxGraphModel>
      <root>
        <mxCell id="0" />
        <mxCell id="1" parent="0" />
      </root>
    </mxGraphModel>
  </diagram>
</mxfile>
